<svg width="24" height="24" viewBox="0 0 24 24" fill="none" xmlns="http://www.w3.org/2000/svg">
<path d="M17.5 0H6.5C4.77669 0.00195197 3.12453 0.687398 1.90596 1.90596C0.687398 3.12453 0.00195197 4.77669 0 6.5V17.5C0.00195197 19.2233 0.687398 20.8755 1.90596 22.094C3.12453 23.3126 4.77669 23.998 6.5 24H17.5C19.2233 23.998 20.8755 23.3126 22.094 22.094C23.3126 20.8755 23.998 19.2233 24 17.5V6.5C23.998 4.77669 23.3126 3.12453 22.094 1.90596C20.8755 0.687398 19.2233 0.00195197 17.5 0ZM23 17.5C22.9984 18.9582 22.4184 20.3562 21.3873 21.3873C20.3562 22.4184 18.9582 22.9984 17.5 23H6.5C5.04181 22.9984 3.64383 22.4184 2.61273 21.3873C1.58164 20.3562 1.00165 18.9582 1 17.5V6.5C1.00165 5.04181 1.58164 3.64383 2.61273 2.61273C3.64383 1.58164 5.04181 1.00165 6.5 1H17.5C18.9582 1.00165 20.3562 1.58164 21.3873 2.61273C22.4184 3.64383 22.9984 5.04181 23 6.5V17.5Z" fill="white" fill-opacity="0.7"/>
<path d="M9.00856 9.1543H6.38645C6.27008 9.1543 6.17578 9.24863 6.17578 9.36497V17.7887C6.17578 17.9051 6.27008 17.9994 6.38645 17.9994H9.00856C9.12494 17.9994 9.21923 17.9051 9.21923 17.7887V9.36497C9.21923 9.24863 9.12494 9.1543 9.00856 9.1543Z" fill="white" fill-opacity="0.7"/>
<path d="M7.69902 4.9668C6.74494 4.9668 5.96875 5.74214 5.96875 6.69517C5.96875 7.64861 6.74494 8.42425 7.69902 8.42425C8.65233 8.42425 9.42789 7.64857 9.42789 6.69517C9.42793 5.74214 8.65233 4.9668 7.69902 4.9668Z" fill="white" fill-opacity="0.7"/>
<path d="M15.6777 8.94434C14.6246 8.94434 13.8461 9.39706 13.3739 9.91147V9.36437C13.3739 9.24804 13.2796 9.1537 13.1632 9.1537H10.6521C10.5357 9.1537 10.4414 9.24804 10.4414 9.36437V17.7881C10.4414 17.9045 10.5357 17.9988 10.6521 17.9988H13.2685C13.3848 17.9988 13.4791 17.9045 13.4791 17.7881V13.6203C13.4791 12.2159 13.8606 11.6687 14.8396 11.6687C15.9059 11.6687 15.9906 12.5458 15.9906 13.6926V17.7881C15.9906 17.9045 16.0849 17.9988 16.2013 17.9988H18.8186C18.935 17.9988 19.0293 17.9045 19.0293 17.7881V13.1676C19.0293 11.0792 18.6311 8.94434 15.6777 8.94434Z" fill="white" fill-opacity="0.7"/>
</svg>
