<svg width="24" height="24" viewBox="0 0 24 24" fill="none" xmlns="http://www.w3.org/2000/svg">
<path d="M17.5 0H6.5C4.77669 0.00195197 3.12453 0.687398 1.90596 1.90596C0.687398 3.12453 0.00195197 4.77669 0 6.5V17.5C0.00195197 19.2233 0.687398 20.8755 1.90596 22.094C3.12453 23.3126 4.77669 23.998 6.5 24H17.5C19.2233 23.998 20.8755 23.3126 22.094 22.094C23.3126 20.8755 23.998 19.2233 24 17.5V6.5C23.998 4.77669 23.3126 3.12453 22.094 1.90596C20.8755 0.687398 19.2233 0.00195197 17.5 0ZM23 17.5C22.9984 18.9582 22.4184 20.3562 21.3873 21.3873C20.3562 22.4184 18.9582 22.9984 17.5 23H6.5C5.04181 22.9984 3.64383 22.4184 2.61273 21.3873C1.58164 20.3562 1.00165 18.9582 1 17.5V6.5C1.00165 5.04181 1.58164 3.64383 2.61273 2.61273C3.64383 1.58164 5.04181 1.00165 6.5 1H17.5C18.9582 1.00165 20.3562 1.58164 21.3873 2.61273C22.4184 3.64383 22.9984 5.04181 23 6.5V17.5Z" fill="white" fill-opacity="0.7"/>
<path d="M15.8925 6.33218C14.9976 5.47313 13.7592 5 12.4055 5C10.3375 5 9.06567 5.84767 8.36285 6.55874C7.49667 7.43506 7 8.59864 7 9.75118C7 11.1983 7.60529 12.309 8.61892 12.7222C8.68697 12.7501 8.75544 12.7641 8.82258 12.7641C9.03642 12.7641 9.20585 12.6242 9.26456 12.3997C9.29878 12.271 9.37805 11.9533 9.41253 11.8154C9.48632 11.5431 9.4267 11.4121 9.26578 11.2225C8.97261 10.8756 8.83609 10.4654 8.83609 9.93156C8.83609 8.34587 10.0168 6.66064 12.2052 6.66064C13.9415 6.66064 15.0201 7.64753 15.0201 9.23613C15.0201 10.2386 14.8042 11.167 14.412 11.8504C14.1395 12.3253 13.6602 12.8913 12.9245 12.8913C12.6063 12.8913 12.3205 12.7606 12.1402 12.5327C11.9699 12.3174 11.9137 12.0391 11.9822 11.7491C12.0596 11.4215 12.1652 11.0797 12.2673 10.7493C12.4536 10.1459 12.6297 9.57596 12.6297 9.12123C12.6297 8.34346 12.1516 7.82084 11.44 7.82084C10.5357 7.82084 9.82719 8.73933 9.82719 9.91188C9.82719 10.4869 9.98002 10.917 10.0492 11.0822C9.93528 11.5649 9.25821 14.4345 9.12978 14.9757C9.05551 15.2916 8.60818 17.7866 9.3486 17.9855C10.1805 18.209 10.9241 15.7791 10.9998 15.5045C11.0612 15.2812 11.2758 14.4368 11.4073 13.9177C11.8089 14.3045 12.4555 14.566 13.0847 14.566C14.2709 14.566 15.3376 14.0323 16.0884 13.0632C16.8166 12.1232 17.2176 10.8131 17.2176 9.37436C17.2176 8.24959 16.7346 7.14072 15.8925 6.33218Z" fill="white" fill-opacity="0.7"/>
</svg>
