<svg width="24" height="24" viewBox="0 0 24 24" fill="none" xmlns="http://www.w3.org/2000/svg">
<path d="M17.5 0H6.5C4.77669 0.00195197 3.12453 0.687398 1.90596 1.90596C0.687398 3.12453 0.00195197 4.77669 0 6.5V17.5C0.00195197 19.2233 0.687398 20.8755 1.90596 22.094C3.12453 23.3126 4.77669 23.998 6.5 24H17.5C19.2233 23.998 20.8755 23.3126 22.094 22.094C23.3126 20.8755 23.998 19.2233 24 17.5V6.5C23.998 4.77669 23.3126 3.12453 22.094 1.90596C20.8755 0.687398 19.2233 0.00195197 17.5 0ZM23 17.5C22.9984 18.9582 22.4184 20.3562 21.3873 21.3873C20.3562 22.4184 18.9582 22.9984 17.5 23H6.5C5.04181 22.9984 3.64383 22.4184 2.61273 21.3873C1.58164 20.3562 1.00165 18.9582 1 17.5V6.5C1.00165 5.04181 1.58164 3.64383 2.61273 2.61273C3.64383 1.58164 5.04181 1.00165 6.5 1H17.5C18.9582 1.00165 20.3562 1.58164 21.3873 2.61273C22.4184 3.64383 22.9984 5.04181 23 6.5V17.5Z" fill="white" fill-opacity="0.7"/>
<path d="M18.6946 8.59282C18.527 7.96592 18.0332 7.47211 17.4063 7.30454C16.2701 7 11.7134 7 11.7134 7C11.7134 7 7.1568 7 6.02055 7.30454C5.39366 7.47211 4.89985 7.96592 4.73228 8.59282C4.42773 9.72907 4.42773 12.1 4.42773 12.1C4.42773 12.1 4.42773 14.4709 4.73228 15.6072C4.89985 16.2341 5.39366 16.7279 6.02055 16.8955C7.1568 17.2 11.7134 17.2 11.7134 17.2C11.7134 17.2 16.2701 17.2 17.4063 16.8955C18.0332 16.7279 18.527 16.2341 18.6946 15.6072C18.9992 14.4709 18.9992 12.1 18.9992 12.1C18.9992 12.1 18.9992 9.72907 18.6946 8.59282ZM10.2563 14.2857V9.91429L14.042 12.1L10.2563 14.2857Z" fill="white"/>
</svg>
